<?xml version="1.0" standalone="no"?>
<!DOCTYPE svg PUBLIC "-//W3C//DTD SVG 20010904//EN"
 "http://www.w3.org/TR/2001/REC-SVG-20010904/DTD/svg10.dtd">
<svg version="1.0" xmlns="http://www.w3.org/2000/svg"
 width="514.000000pt" height="366.000000pt" viewBox="0 0 514.000000 366.000000"
 preserveAspectRatio="xMidYMid meet">

<g transform="translate(0.000000,366.000000) scale(0.100000,-0.100000)"
fill="#000000" stroke="none">
<path d="M230 3524 c0 -4 7 -12 16 -18 22 -17 21 -301 -1 -326 -8 -9 -12 -20
-8 -23 8 -9 123 -9 123 -1 0 3 -11 15 -25 26 -20 15 -25 28 -25 63 0 50 10 60
70 69 70 11 110 53 110 118 0 38 -27 74 -67 89 -27 10 -193 13 -193 3z m180
-34 c21 -16 25 -27 25 -70 0 -40 -5 -55 -19 -66 -27 -19 -92 -18 -100 2 -8 21
-8 139 1 147 13 14 69 6 93 -13z"/>
<path d="M720 3520 c0 -5 6 -10 14 -10 21 0 26 -33 26 -177 0 -118 -2 -135
-19 -152 -11 -11 -17 -22 -14 -25 4 -3 64 -6 135 -6 l128 0 15 36 c21 50 8 62
-26 24 -27 -30 -32 -31 -96 -28 l-68 3 0 75 0 75 47 3 c39 3 49 0 58 -17 18
-35 30 -24 30 29 0 53 -12 64 -30 29 -9 -17 -19 -20 -58 -17 l-47 3 0 70 0 70
68 3 c63 3 68 2 79 -23 19 -43 45 -26 28 19 l-10 26 -130 0 c-80 0 -130 -4
-130 -10z"/>
<path d="M1237 3523 c-10 -9 -9 -83 1 -83 4 0 14 15 22 33 13 28 21 32 58 35
l42 3 0 -160 c0 -151 -1 -161 -20 -171 -33 -18 -13 -30 50 -30 63 0 83 12 50
30 -20 10 -20 18 -18 168 l3 157 37 3 c35 3 40 0 60 -35 l23 -38 3 33 c6 62 7
62 -156 62 -82 0 -152 -3 -155 -7z"/>
<path d="M2060 3520 c0 -5 6 -10 14 -10 22 0 26 -24 26 -171 0 -126 -2 -141
-19 -156 -11 -9 -18 -20 -15 -25 6 -9 124 -11 124 -2 0 3 -11 15 -25 26 -21
16 -25 28 -25 73 0 58 8 69 57 80 27 5 37 2 57 -20 22 -23 25 -24 29 -8 3 10
3 32 2 48 -2 17 -4 35 -4 40 -1 6 -9 0 -19 -13 -15 -20 -26 -23 -68 -20 l-49
3 -3 64 c-4 76 1 81 80 81 50 0 60 -3 74 -25 19 -30 34 -32 34 -6 0 49 -4 51
-141 51 -79 0 -129 -4 -129 -10z"/>
<path d="M2550 3521 c0 -5 7 -11 15 -15 12 -4 15 -32 15 -165 0 -132 -3 -160
-15 -165 -33 -12 -13 -26 38 -26 63 0 73 7 50 33 -15 16 -18 40 -18 164 0 126
2 146 18 157 28 21 20 26 -43 26 -33 0 -60 -4 -60 -9z"/>
<path d="M2920 3521 c0 -5 6 -11 13 -13 9 -3 13 -46 15 -156 3 -139 2 -152
-16 -170 -26 -26 -19 -32 34 -32 49 0 64 14 34 30 -18 10 -20 20 -20 135 0 69
3 125 6 125 9 0 27 -21 119 -145 48 -66 95 -126 104 -133 14 -12 16 4 21 158
4 148 7 173 23 184 27 21 20 26 -33 26 -27 0 -50 -4 -50 -10 0 -5 7 -10 15
-10 8 0 17 -10 20 -22 10 -39 1 -201 -11 -205 -6 -2 -44 40 -84 94 -103 139
-118 153 -157 153 -18 0 -33 -4 -33 -9z"/>
<path d="M3520 3522 c0 -5 7 -12 15 -16 12 -4 15 -32 15 -160 0 -148 -1 -156
-21 -167 -41 -21 -4 -32 98 -27 121 5 175 27 215 90 47 72 49 144 5 209 -38
56 -86 74 -214 77 -70 2 -113 0 -113 -6z m227 -38 c49 -37 65 -68 70 -135 5
-78 -15 -123 -67 -151 -41 -22 -109 -24 -136 -4 -17 13 -19 27 -19 138 0 68 4
136 8 152 8 28 9 28 63 24 33 -3 65 -13 81 -24z"/>
<path d="M4120 3521 c0 -5 9 -11 20 -14 19 -5 20 -14 20 -161 0 -130 -3 -158
-15 -162 -8 -4 -15 -12 -15 -20 0 -11 25 -14 128 -14 142 0 152 4 152 60 l0
35 -26 -32 c-24 -31 -30 -33 -84 -33 -87 0 -90 2 -90 74 0 35 5 67 12 74 20
20 86 15 100 -8 20 -32 28 -24 28 30 0 50 -13 67 -23 30 -4 -16 -13 -20 -49
-20 -64 0 -71 9 -69 76 1 31 4 61 7 65 3 5 34 9 70 9 59 0 65 -2 76 -25 16
-35 30 -31 26 8 l-3 32 -132 3 c-76 1 -133 -1 -133 -7z"/>
<path d="M4650 3520 c0 -5 6 -10 14 -10 22 0 26 -24 26 -171 0 -126 -2 -141
-19 -156 -28 -24 -17 -33 38 -33 59 0 66 6 41 38 -24 30 -28 113 -6 131 21 17
39 5 65 -45 37 -69 95 -124 131 -124 38 0 38 5 -1 37 -16 14 -48 52 -70 84
l-40 59 30 28 c44 40 57 82 36 122 -9 17 -27 35 -41 40 -34 13 -204 13 -204 0z
m185 -35 c29 -28 31 -45 10 -85 -16 -31 -46 -44 -86 -38 -22 3 -24 9 -27 62
-2 32 -1 65 2 72 9 24 74 17 101 -11z"/>
<path d="M2082 2533 c-18 -9 -41 -27 -51 -40 -16 -20 -28 -23 -78 -23 -87 1
-92 -1 -128 -37 -52 -52 -54 -141 -4 -194 16 -17 29 -35 29 -39 0 -4 12 -16
26 -26 14 -10 45 -34 67 -51 23 -18 47 -33 54 -33 7 0 35 -14 63 -30 67 -40
90 -42 106 -10 54 107 94 196 94 210 0 9 3 20 8 24 4 4 8 45 8 90 2 79 1 83
-30 117 -54 62 -100 74 -164 42z m123 -73 c22 -23 27 -39 29 -85 1 -31 -1 -58
-6 -61 -9 -6 -32 -85 -29 -102 1 -7 -4 -11 -10 -10 -7 2 -20 -15 -28 -38 -33
-85 -31 -84 -107 -44 -38 19 -79 45 -92 58 -14 12 -33 22 -43 22 -11 0 -19 6
-19 13 0 7 -13 28 -30 47 -52 62 -31 149 41 165 23 5 37 1 64 -19 18 -14 41
-26 49 -26 14 0 61 82 59 105 0 6 20 9 48 7 36 -3 53 -10 74 -32z m-145 -370
c0 -5 -7 -10 -16 -10 -8 0 -12 5 -9 10 3 6 10 10 16 10 5 0 9 -4 9 -10z"/>
<path d="M3530 2458 c-83 -87 -154 -230 -165 -329 -13 -118 -13 -118 -48 -124
-18 -3 -77 -11 -132 -16 -55 -6 -119 -13 -142 -16 -32 -4 -46 -1 -63 14 -11
11 -33 26 -48 34 -15 7 -47 28 -72 47 -127 94 -306 212 -322 212 -9 0 -22 -9
-28 -19 -13 -25 -13 -200 0 -272 5 -30 14 -90 20 -134 6 -44 23 -125 37 -181
l26 -101 -27 -71 c-34 -88 -33 -137 3 -137 22 0 28 9 49 75 14 41 29 83 34 92
11 23 10 64 -1 102 -33 106 -68 304 -77 434 -6 82 -5 92 10 92 15 0 69 -35
320 -208 81 -56 95 -62 126 -57 19 3 87 12 150 20 381 48 569 57 636 29 130
-54 245 -183 439 -491 17 -26 70 -105 118 -175 209 -305 278 -466 263 -617
-10 -110 -78 -197 -237 -305 -83 -55 -93 -50 -96 53 -2 77 -1 86 26 124 29 44
47 91 81 219 28 107 26 141 -6 167 -37 29 -122 28 -271 -4 -126 -27 -153 -36
-257 -85 -84 -40 -97 -63 -67 -117 43 -75 222 -174 356 -198 63 -12 65 -16 65
-135 0 -74 -4 -111 -12 -117 -19 -15 -214 -79 -283 -94 -33 -7 -109 -12 -170
-12 -222 -1 -287 44 -447 313 -97 162 -258 492 -258 530 0 13 15 24 52 38 62
23 82 47 55 66 -22 17 -86 5 -133 -24 -42 -26 -160 -152 -169 -180 -9 -28 15
-55 41 -46 11 4 31 24 46 46 15 22 31 40 36 40 4 0 29 -46 56 -102 27 -57 52
-111 57 -120 16 -31 11 -58 -11 -58 -39 0 -171 -31 -218 -51 -64 -28 -144 -91
-176 -140 -69 -104 -84 -152 -72 -234 6 -38 13 -50 45 -71 68 -44 183 -32 294
31 112 65 141 75 208 75 68 0 154 -21 198 -48 14 -9 58 -37 98 -63 77 -50 120
-63 248 -74 113 -10 275 15 412 64 134 48 148 54 252 114 255 145 353 289 330
482 -20 159 -81 282 -324 645 -66 98 -151 227 -189 285 -38 58 -103 140 -144
181 -69 70 -169 145 -211 159 -10 3 -28 29 -41 58 -13 28 -41 90 -63 137 -21
47 -46 103 -55 125 -33 83 -78 160 -94 163 -10 2 -34 -14 -58 -40z m-363
-1883 c12 -8 20 -23 19 -32 -2 -15 -17 -19 -77 -25 -88 -9 -160 -32 -184 -58
-31 -34 4 -73 48 -53 59 28 86 35 148 40 80 7 136 -9 151 -43 6 -13 15 -24 20
-24 4 0 8 -11 8 -24 l0 -24 -94 5 c-110 7 -164 -7 -245 -62 -90 -60 -202 -82
-250 -49 -21 15 -23 22 -18 65 11 89 108 208 206 252 100 44 228 60 268 32z"/>
<path d="M2021 1742 c-129 -137 -226 -234 -240 -241 -9 -5 -43 -2 -76 5 -33 8
-109 16 -170 19 -90 5 -124 3 -190 -14 -63 -15 -83 -17 -96 -8 -9 7 -50 37
-91 68 -103 79 -214 114 -396 126 -86 6 -92 5 -93 -13 -2 -33 2 -58 18 -104 8
-25 32 -111 53 -193 l38 -147 -27 -90 c-15 -49 -29 -91 -32 -95 -3 -3 -57 -8
-120 -11 -115 -5 -159 -19 -159 -48 0 -29 25 -36 106 -28 43 4 94 6 112 4 33
-3 34 -5 29 -40 -8 -59 -36 -175 -44 -183 -5 -3 -53 -16 -108 -29 -108 -24
-125 -32 -125 -62 0 -29 25 -32 100 -14 37 9 80 16 94 16 23 0 26 -4 26 -38 0
-31 7 -45 40 -77 22 -21 40 -45 40 -52 0 -6 -30 -30 -67 -52 -85 -49 -114 -79
-106 -109 7 -29 38 -28 75 3 16 14 61 43 98 65 l69 40 88 -67 c93 -72 130 -95
230 -143 68 -33 96 -31 91 7 -2 19 -20 33 -84 67 -95 50 -209 130 -218 151 -4
11 6 20 34 31 31 13 40 21 40 40 0 33 -24 40 -79 24 -86 -24 -84 -24 -134 23
-41 38 -47 48 -41 71 8 35 28 44 114 52 81 8 106 24 89 56 -10 19 -18 20 -85
16 -51 -3 -77 -1 -84 7 -12 14 24 165 41 176 15 9 82 -7 131 -31 48 -23 68
-17 68 20 0 22 -7 30 -37 43 -33 14 -83 30 -132 44 -17 4 -9 63 20 146 21 58
21 77 1 147 -29 100 -72 272 -72 285 0 18 48 20 134 4 122 -22 188 -57 292
-152 l55 -50 72 21 c129 36 205 37 395 3 29 -6 61 -13 71 -16 15 -4 52 28 161
139 150 153 164 161 189 105 60 -137 112 -316 126 -437 l7 -62 -68 -30 c-145
-63 -155 -71 -130 -105 13 -19 16 -18 104 18 50 20 97 34 105 31 15 -6 43
-133 34 -156 -3 -8 -27 -23 -54 -33 -57 -21 -113 -60 -113 -79 0 -8 7 -19 15
-26 13 -11 27 -8 80 19 36 18 71 31 79 28 15 -6 41 -119 33 -141 -4 -9 -19
-18 -34 -21 -83 -19 -108 -30 -111 -53 -5 -30 15 -35 87 -24 33 5 65 5 72 2 6
-4 21 -61 33 -125 23 -125 40 -155 70 -125 12 12 13 29 4 95 -5 44 -11 100
-12 125 l-1 45 75 5 c62 4 75 8 78 23 7 35 -16 47 -93 47 -46 0 -76 5 -83 13
-11 14 -32 136 -25 153 4 12 116 33 197 37 56 2 79 24 57 51 -16 19 -89 21
-191 6 -48 -7 -68 -6 -77 3 -16 15 -38 156 -26 168 12 12 139 38 224 45 38 4
72 11 75 16 3 5 3 20 0 34 -6 21 -12 24 -49 24 -23 0 -80 -7 -127 -16 -146
-28 -147 -28 -154 -7 -7 22 -44 183 -56 238 -18 87 -78 237 -122 305 -45 68
-67 67 -137 -8z"/>
<path d="M3877 1614 c-63 -68 -32 -254 42 -254 44 0 71 53 71 141 0 117 -57
174 -113 113z"/>
<path d="M3457 1532 c-59 -65 -51 -218 13 -252 74 -40 132 119 80 219 -27 53
-63 66 -93 33z"/>
<path d="M1703 1102 c-38 -24 -54 -135 -29 -197 42 -99 126 -45 126 81 0 84
-51 145 -97 116z"/>
<path d="M1198 1068 c-32 -64 -26 -168 12 -203 29 -26 68 -12 86 30 22 53 18
147 -7 179 -30 38 -70 35 -91 -6z"/>
<path d="M1412 668 c-5 -7 -16 -27 -25 -43 -24 -48 -67 -85 -97 -85 -33 0 -60
28 -60 61 0 14 -7 35 -16 47 -35 50 -72 9 -54 -61 36 -134 124 -164 225 -75
l47 41 37 -41 c56 -61 97 -73 174 -51 65 18 165 125 151 162 -11 30 -38 30
-62 0 -56 -69 -85 -93 -119 -99 -53 -10 -81 10 -121 89 -34 67 -57 83 -80 55z"/>
</g>
</svg>
